<svg height="40" viewBox="0 0 128 128" width="40" xmlns="http://www.w3.org/2000/svg"><g><path d="m83.3 23.844v-17.538h-38.6v8.769h-38.394v97.85h38.394v-8.769h38.6v17.538h38.394v-97.85z" fill="#9b6e42"/><g fill="#825a3a"><path d="m59.088 6.31v21.64a1.75 1.75 0 0 1 -3.5 0v-21.64z"/><path d="m72.418 6.31v39.22a1.75 1.75 0 0 1 -3.5 0v-39.22z"/><path d="m57.334 50.406a1.75 1.75 0 0 1 -1.75-1.75v-8.769a1.75 1.75 0 0 1 3.5 0v8.769a1.75 1.75 0 0 1 -1.75 1.75z"/><path d="m59.088 66v38.16h-3.5v-38.16a1.75 1.75 0 0 1 3.5 0z"/><path d="m70.666 74.519a1.75 1.75 0 0 1 -1.75-1.75v-17.134a1.75 1.75 0 1 1 3.5 0v17.134a1.75 1.75 0 0 1 -1.75 1.75z"/><path d="m70.666 93.279a1.749 1.749 0 0 1 -1.75-1.75v-6.853a1.75 1.75 0 1 1 3.5 0v6.853a1.749 1.749 0 0 1 -1.75 1.75z"/><path d="m96.445 74.519a1.751 1.751 0 0 1 -1.75-1.75v-36.711a1.75 1.75 0 1 1 3.5 0v36.711a1.75 1.75 0 0 1 -1.75 1.75z"/><path d="m109 111.9a1.75 1.75 0 0 1 -1.75-1.75v-48.497a1.75 1.75 0 0 1 3.5 0v48.492a1.75 1.75 0 0 1 -1.75 1.755z"/><path d="m98.2 104.16v17.53h-3.5v-17.53a1.75 1.75 0 0 1 3.5 0z"/><path d="m110.748 23.84v23.89a1.75 1.75 0 1 1 -3.5 0v-23.89z"/><path d="m96.445 95.909a1.75 1.75 0 0 1 -1.75-1.75v-4.709a1.75 1.75 0 1 1 3.5 0v4.709a1.749 1.749 0 0 1 -1.75 1.75z"/><path d="m19.445 79.822a1.75 1.75 0 0 1 -1.75-1.75v-35.691a1.75 1.75 0 0 1 3.5 0v35.691a1.749 1.749 0 0 1 -1.75 1.75z"/><path d="m32 96.418a1.749 1.749 0 0 1 -1.75-1.75v-8.768a1.75 1.75 0 0 1 3.5 0v8.769a1.749 1.749 0 0 1 -1.75 1.749z"/><path d="m21.2 95.39v17.53h-3.5v-17.53a1.75 1.75 0 0 1 3.5 0z"/><path d="m33.748 15.08v52.98a1.75 1.75 0 1 1 -3.5 0v-52.98z"/><path d="m21.2 15.08v12.87a1.75 1.75 0 0 1 -3.5 0v-12.87z"/></g></g></svg>